<svg 
 xmlns="http://www.w3.org/2000/svg"
 xmlns:xlink="http://www.w3.org/1999/xlink"
 width="23px" height="30px">
<path fill-rule="evenodd"  fill="rgb(255, 255, 255)"
 d="M14.135,29.654 L14.135,20.111 C17.723,19.405 19.406,17.476 19.406,17.476 L19.406,12.204 L18.88,12.204 C14.428,11.993 11.499,13.522 11.499,13.522 C11.499,13.522 8.569,11.993 4.910,12.204 L3.592,12.204 L3.592,17.476 C3.592,17.476 5.274,19.405 8.863,20.111 L8.863,29.654 C8.863,29.654 3.792,23.359 0.956,22.747 L0.956,9.569 C0.956,9.569 1.238,0.344 11.499,0.344 C21.759,0.344 22.42,9.569 22.42,9.569 L22.42,22.747 C19.206,23.359 14.135,29.654 14.135,29.654 Z"/>
</svg>
